<svg width="27" height="22" viewBox="0 0 27 22" fill="none" xmlns="http://www.w3.org/2000/svg">
<g clip-path="url(#clip0)">
<path d="M10.4107 12.2739C8.01131 10.3032 7.46955 8.33243 7.34733 7.54286C7.31318 7.32454 7.40465 7.1056 7.59481 6.9505L9.53648 5.35641C9.8221 5.12195 9.87279 4.75656 9.6587 4.47535L6.5672 0.532469C6.33034 0.221072 5.84403 0.108686 5.44423 0.272957L0.48127 2.19278C0.157973 2.32353 -0.0321863 2.60567 0.00452054 2.90012C0.264566 4.92922 1.34159 9.91727 7.30962 14.8195C13.2777 19.7218 19.3497 20.606 21.8214 20.8196C22.1799 20.8498 22.5234 20.6936 22.6826 20.428L25.02 16.3517C25.2193 16.024 25.0833 15.6256 24.7058 15.4307L19.9053 12.8922C19.5632 12.7162 19.1183 12.7575 18.8327 12.9919L16.8919 14.5867C16.703 14.7429 16.4365 14.818 16.1707 14.79C15.2094 14.6896 12.81 14.2446 10.4107 12.2739Z" fill="#00C2FF"/>
<path d="M20.8686 12.0061C20.3899 12.0061 20.0018 11.6873 20.0018 11.2941C19.9978 8.34643 17.0895 5.9577 13.5007 5.95436C13.022 5.95436 12.6339 5.6356 12.6339 5.24239C12.6339 4.84918 13.022 4.53043 13.5007 4.53043C18.0465 4.53455 21.7304 7.56034 21.7354 11.2941C21.7354 11.6873 21.3474 12.0061 20.8686 12.0061Z" fill="#00C2FF"/>
<path d="M25.2027 12.0061C24.724 12.0061 24.3359 11.6873 24.3359 11.2941C24.3292 6.38128 19.482 2.40001 13.5007 2.39452C13.022 2.39452 12.6339 2.07576 12.6339 1.68255C12.6339 1.28934 13.022 0.970581 13.5007 0.970581C20.4391 0.976859 26.0619 5.59518 26.0695 11.2941C26.0695 11.4829 25.9782 11.664 25.8157 11.7975C25.6531 11.9311 25.4326 12.0061 25.2027 12.0061Z" fill="#00C2FF"/>
</g>
<defs>
<clipPath id="clip0">
<rect width="25.1377" height="20.6471" fill="white" transform="translate(0.931824 0.970581)"/>
</clipPath>
</defs>
</svg>
