<svg width="128" height="129" viewBox="0 0 128 129" fill="none" xmlns="http://www.w3.org/2000/svg">
<path d="M58.6022 87.1496C59.572 86.1683 59.572 84.5802 58.6022 83.5989C57.6313 82.6206 56.0586 82.6206 55.0868 83.5989C54.1179 84.5802 54.1179 86.1683 55.0868 87.1496C56.0586 88.128 57.6313 88.128 58.6022 87.1496Z" fill="white" fill-opacity="0.89"/>
<path d="M46.8357 27.5977C46.8357 42.8151 59.0963 55.1964 74.1665 55.1964C89.2367 55.1964 101.497 42.8151 101.497 27.5977C101.497 12.3803 89.2367 0 74.1665 0C59.0963 0 46.8357 12.3803 46.8357 27.5977ZM96.5286 27.5977C96.5286 40.0486 86.497 50.1782 74.1665 50.1782C61.836 50.1782 51.8044 40.0486 51.8044 27.5977C51.8044 15.1478 61.836 5.01821 74.1665 5.01821C86.497 5.01821 96.5286 15.1478 96.5286 27.5977Z" fill="white" fill-opacity="0.89"/>
<path d="M28.7433 127.749C29.7064 128.73 31.2743 128.74 32.25 127.77L44.296 115.786C46.3425 113.72 46.9648 110.66 46.0649 108.001L48.656 105.478C50.0511 104.117 51.8879 103.367 53.8296 103.367H86.8601C92.72 103.367 98.2586 101.095 102.457 96.9684C102.63 96.7988 101.146 98.5644 124.991 69.7864C128.528 65.5612 127.999 59.2167 123.811 55.6415C119.649 52.0996 113.414 52.6084 109.868 56.761L95.2063 71.9774C93.3549 69.6766 90.5317 68.2424 87.4814 68.2424H59.7749C55.8324 66.5768 51.6491 65.7338 47.3328 65.7338C35.3683 65.7338 24.9212 71.3137 19.3146 81.7756C16.9526 81.3237 14.4615 82.0452 12.6693 83.8548L0.849465 95.8254C-0.115539 96.8028 -0.117481 98.384 0.845582 99.3643L28.7433 127.749ZM47.3318 70.751C51.1374 70.751 54.8169 71.5245 58.2701 73.0498C58.5847 73.189 58.9235 73.2606 59.2662 73.2606H87.4814C90.1755 73.2606 92.4511 75.479 92.4511 78.2778C92.4511 81.0452 90.2221 83.296 87.4814 83.296H67.2095C65.8377 83.296 64.7252 84.4195 64.7252 85.8046C64.7252 87.1908 65.8377 88.3133 67.2095 88.3133H87.4814C92.9617 88.3133 97.4198 83.8117 97.4198 78.2778C97.4198 77.8367 97.3887 77.3995 97.3324 76.9662C111.515 62.2449 113.515 60.1764 113.601 60.0735C115.371 57.9629 118.515 57.6952 120.606 59.4755C122.699 61.2626 122.964 64.4349 121.189 66.5572L98.9032 93.4589C95.649 96.6136 91.3764 98.3497 86.8601 98.3497H53.8296C50.5928 98.3497 47.5289 99.5996 45.2047 101.867L43.0932 103.925L23.628 84.2705C28.1773 75.6526 36.7138 70.751 47.3318 70.751ZM16.1857 87.4006C17.005 86.5732 18.2632 86.4242 19.2622 87.0477C19.6923 87.3124 18.4574 86.1772 40.7826 108.689C41.7757 109.692 41.7223 111.29 40.7962 112.225L30.5267 122.441L6.1133 97.6007L16.1857 87.4006Z" fill="white" fill-opacity="0.89"/>
<path d="M71.1851 12.545V15.4849C68.293 16.5202 66.2154 19.3091 66.2154 22.5804C66.2154 26.7301 69.559 30.1073 73.6694 30.1073C75.0393 30.1073 76.1538 31.2327 76.1538 32.6159C76.1538 33.9991 75.0393 35.1245 73.6694 35.1245C72.6083 35.1245 71.4618 34.451 70.4434 33.2266C69.5599 32.1659 67.993 32.0296 66.9426 32.9207C65.8921 33.8128 65.7562 35.395 66.6397 36.4557C67.9678 38.0507 69.5298 39.1624 71.1851 39.7231V42.6513C71.1851 44.0375 72.2977 45.1599 73.6694 45.1599C75.0412 45.1599 76.1538 44.0375 76.1538 42.6513V39.7114C79.0459 38.6752 81.1235 35.8862 81.1235 32.6159C81.1235 28.4652 77.7799 25.089 73.6694 25.089C72.2996 25.089 71.1851 23.9637 71.1851 22.5804C71.1851 21.1972 72.2996 20.0708 73.6694 20.0708C74.55 20.0708 75.4791 20.5247 76.3567 21.3825C77.3431 22.3461 78.9158 22.3197 79.8701 21.3247C80.8245 20.3287 80.7982 18.7406 79.8129 17.7769C78.5517 16.5447 77.2897 15.8477 76.1538 15.4673V12.545C76.1538 11.1588 75.0412 10.0354 73.6694 10.0354C72.2977 10.0354 71.1851 11.1588 71.1851 12.545Z" fill="white" fill-opacity="0.89"/>
</svg>
