<svg width="127" height="127" viewBox="0 0 127 127" fill="none" xmlns="http://www.w3.org/2000/svg">
<path d="M63.4976 0C52.2764 0.0023398 41.2561 2.97776 31.5585 8.62341C21.8608 14.2691 13.832 22.3834 8.28916 32.1405C2.74636 41.8976 -0.112495 52.9491 0.00355986 64.1702C0.119615 75.3912 3.20644 86.3812 8.94986 96.0216C8.66068 96.372 8.4921 96.8063 8.46908 97.2601C8.44607 97.7139 8.56984 98.163 8.82207 98.5409L11.2191 102.137L1.02775 108.252C0.66139 108.471 0.370113 108.797 0.192219 109.185C0.0143252 109.574 -0.041859 110.007 0.0310538 110.428C0.103967 110.849 0.302563 111.238 0.600732 111.544C0.8989 111.85 1.28268 112.059 1.70162 112.142L10.4873 113.899L9.89914 124.769C9.87836 125.153 9.96246 125.535 10.1424 125.874C10.3224 126.214 10.5915 126.498 10.9207 126.697C11.25 126.895 11.627 127 12.0113 127C12.3957 127 12.7728 126.896 13.1023 126.698L29.2677 116.988C39.4881 123.525 51.3665 126.999 63.4986 126.999C75.6307 126.999 87.5091 123.525 97.7294 116.988L113.895 126.698C114.224 126.896 114.601 127 114.986 127C115.37 127 115.747 126.895 116.076 126.697C116.406 126.498 116.675 126.214 116.855 125.874C117.035 125.535 117.119 125.153 117.098 124.769L116.51 113.899L125.296 112.142C125.714 112.059 126.098 111.85 126.396 111.544C126.695 111.238 126.893 110.849 126.966 110.428C127.039 110.007 126.983 109.574 126.805 109.185C126.627 108.797 126.336 108.471 125.969 108.252L115.777 102.137L118.174 98.5409C118.427 98.1629 118.55 97.7136 118.527 97.2596C118.504 96.8057 118.335 96.3713 118.046 96.0208C123.791 86.3808 126.88 75.3904 126.997 64.1686C127.113 52.9469 124.255 41.8945 118.712 32.1368C113.168 22.3792 105.139 14.2647 95.4398 8.61961C85.741 2.97449 74.7196 0.000355488 63.4976 0ZM19.6762 95.3498C33.3521 88.7853 48.3279 85.3771 63.4976 85.3771C78.6673 85.3771 93.6432 88.7853 107.319 95.3498L113.298 98.2205L107.191 107.382C93.4708 101.138 78.5715 97.9071 63.4971 97.9071C48.4227 97.9071 33.5234 101.138 19.8029 107.382L13.696 98.2205L19.6762 95.3498ZM63.4976 81.1438C51.5408 81.1606 39.6727 83.1968 28.3941 87.1665C23.6626 80.1827 21.1438 71.9358 21.166 63.5C21.166 40.1572 40.1557 21.1667 63.4976 21.1667C86.8396 21.1667 105.829 40.1572 105.829 63.5C105.849 71.9355 103.33 80.1819 98.5998 87.166C87.3216 83.1965 75.454 81.1605 63.4976 81.1438ZM78.147 103.22C68.6912 106.704 58.3033 106.704 48.8474 103.22C58.5609 101.78 68.4336 101.78 78.147 103.22ZM14.3416 121.015L14.8131 112.298C14.8406 111.79 14.6841 111.288 14.3722 110.886C14.0603 110.484 13.6139 110.208 13.1148 110.108L7.90029 109.065L13.5701 105.663L17.2884 111.241C17.5707 111.664 17.996 111.972 18.4865 112.107C18.977 112.242 19.4998 112.197 19.9593 111.978C21.376 111.303 22.8093 110.663 24.2594 110.056L26.6405 113.628L14.3416 121.015ZM31.5589 113.43C31.5121 113.324 31.4567 113.223 31.3933 113.126L28.2883 108.469C32.6118 106.871 37.0386 105.568 41.5381 104.568C48.2947 108.178 55.8371 110.067 63.4976 110.067C71.1582 110.067 78.7006 108.178 85.4572 104.568C89.9568 105.567 94.3836 106.87 98.7073 108.468L95.6022 113.125C95.5389 113.221 95.4836 113.323 95.4369 113.428C85.8999 119.525 74.8172 122.765 63.498 122.765C52.1788 122.765 41.0961 119.525 31.5592 113.428L31.5589 113.43ZM119.095 109.064L113.881 110.107C113.381 110.207 112.935 110.483 112.623 110.885C112.311 111.288 112.155 111.789 112.182 112.297L112.654 121.015L100.355 113.628L102.736 110.056C104.185 110.664 105.618 111.305 107.036 111.978C107.496 112.197 108.019 112.243 108.51 112.108C109.001 111.972 109.426 111.665 109.708 111.241L113.427 105.663L119.095 109.064ZM114.315 94.0115L109.151 91.5327C107.024 90.5119 104.862 89.5642 102.666 88.6897C107.514 81.1846 110.083 72.435 110.062 63.5C110.062 37.823 89.1736 16.9333 63.4976 16.9333C37.8216 16.9333 16.9328 37.823 16.9328 63.5C16.9096 72.4356 19.4782 81.1861 24.3274 88.6913C22.1339 89.566 19.9732 90.5134 17.8453 91.5335L12.6827 94.0115C7.2861 85.0182 4.37264 74.7538 4.23979 64.2663C4.10694 53.7788 6.75947 43.4439 11.9265 34.3167C17.0936 25.1896 24.5902 17.5972 33.6508 12.3147C42.7113 7.03221 53.0114 4.24888 63.4994 4.24888C73.9873 4.24888 84.2874 7.03221 93.348 12.3147C102.409 17.5972 109.905 25.1896 115.072 34.3167C120.239 43.4439 122.892 53.7788 122.759 64.2663C122.626 74.7538 119.713 85.0182 114.316 94.0115H114.315Z" fill="white" fill-opacity="0.89"/>
<path d="M83.6052 46.5667H71.964C71.4029 46.566 70.8649 46.3428 70.4681 45.946C70.0713 45.5492 69.8481 45.0112 69.8474 44.45V38.1C69.8455 36.4165 69.1759 34.8025 67.9855 33.612C66.7951 32.4216 65.1811 31.752 63.4977 31.75H59.2645C58.7032 31.75 58.1648 31.973 57.7679 32.37C57.3709 32.7669 57.1479 33.3053 57.1479 33.8667V38.5321C57.1523 40.131 56.8395 41.7149 56.2276 43.1921C55.6157 44.6693 54.7168 46.0105 53.5831 47.1379L52.038 48.6833H40.2153C39.6539 48.6833 39.1156 48.9063 38.7186 49.3033C38.3217 49.7003 38.0987 50.2386 38.0987 50.8V74.0834C38.0987 74.6447 38.3217 75.1831 38.7186 75.5801C39.1156 75.977 39.6539 76.2 40.2153 76.2H77.2555C78.1126 76.2002 78.9569 75.9922 79.7159 75.5939C80.4748 75.1956 81.1256 74.6188 81.6123 73.9133C82.099 73.2078 82.4071 72.3945 82.51 71.5436C82.6129 70.6926 82.5075 69.8295 82.203 69.0282C83.2339 68.3762 84.0077 67.3879 84.3935 66.2306C84.7792 65.0734 84.7531 63.8184 84.3196 62.6782C85.3505 62.0262 86.1243 61.0379 86.51 59.8806C86.8958 58.7234 86.8697 57.4684 86.4362 56.3282C87.4043 55.7148 88.147 54.8036 88.5527 53.7317C88.9585 52.6598 89.0052 51.4852 88.686 50.3844C88.3668 49.2836 87.6988 48.3163 86.7826 47.6278C85.8663 46.9393 84.7513 46.567 83.6052 46.5667ZM42.3319 52.9167H50.7982V71.9667H42.3319V52.9167ZM83.6052 52.9167H81.4886C80.9273 52.9167 80.3889 53.1397 79.992 53.5366C79.5951 53.9336 79.3721 54.472 79.3721 55.0333C79.3721 55.5947 79.5951 56.1331 79.992 56.5301C80.3889 56.927 80.9273 57.15 81.4886 57.15C81.7693 57.15 82.0385 57.2615 82.237 57.46C82.4354 57.6585 82.5469 57.9277 82.5469 58.2084C82.5469 58.489 82.4354 58.7582 82.237 58.9567C82.0385 59.1552 81.7693 59.2667 81.4886 59.2667H79.3721C78.8107 59.2667 78.2724 59.4897 77.8754 59.8866C77.4785 60.2836 77.2555 60.822 77.2555 61.3834C77.2555 61.9447 77.4785 62.4831 77.8754 62.8801C78.2724 63.277 78.8107 63.5 79.3721 63.5C79.6527 63.5 79.9219 63.6115 80.1204 63.81C80.3189 64.0085 80.4304 64.2777 80.4304 64.5584C80.4304 64.839 80.3189 65.1082 80.1204 65.3067C79.9219 65.5052 79.6527 65.6167 79.3721 65.6167H77.2555C76.6941 65.6167 76.1558 65.8397 75.7588 66.2366C75.3619 66.6336 75.1389 67.172 75.1389 67.7334C75.1389 68.2947 75.3619 68.8331 75.7588 69.2301C76.1558 69.627 76.6941 69.85 77.2555 69.85C77.5362 69.85 77.8053 69.9615 78.0038 70.16C78.2023 70.3585 78.3138 70.6277 78.3138 70.9084C78.3138 71.189 78.2023 71.4582 78.0038 71.6567C77.8053 71.8552 77.5362 71.9667 77.2555 71.9667H55.0314V51.6766L56.5767 50.1317C58.1046 48.6119 59.316 46.8041 60.1406 44.8131C60.9653 42.822 61.3869 40.6872 61.3811 38.5321V35.9833H63.4977C64.0589 35.984 64.5968 36.2072 64.9936 36.604C65.3904 37.0008 65.6136 37.5388 65.6143 38.1V44.45C65.6162 46.1335 66.2859 47.7475 67.4762 48.938C68.6666 50.1284 70.2806 50.7981 71.964 50.8H83.6052C83.8859 50.8 84.1551 50.9115 84.3536 51.11C84.552 51.3085 84.6635 51.5777 84.6635 51.8583C84.6635 52.139 84.552 52.4082 84.3536 52.6067C84.1551 52.8052 83.8859 52.9167 83.6052 52.9167Z" fill="white" fill-opacity="0.89"/>
<path d="M59.1084 91.0697L61.0662 92.4923L60.3183 94.7942C60.2664 94.9537 60.2663 95.1255 60.3181 95.285C60.3698 95.4445 60.4708 95.5835 60.6064 95.682C60.7421 95.7806 60.9055 95.8337 61.0731 95.8337C61.2408 95.8336 61.4042 95.7805 61.5398 95.6819L63.4976 94.2592L65.4555 95.6819C65.5911 95.7805 65.7545 95.8336 65.9222 95.8337C66.0898 95.8337 66.2532 95.7806 66.3889 95.682C66.5245 95.5835 66.6255 95.4445 66.6772 95.285C66.729 95.1255 66.7289 94.9537 66.677 94.7942L65.9291 92.4923L67.8869 91.0697C68.0225 90.9711 68.1234 90.8322 68.1752 90.6728C68.227 90.5134 68.227 90.3417 68.1752 90.1823C68.1235 90.0229 68.0225 89.8839 67.887 89.7854C67.7514 89.6869 67.5881 89.6338 67.4205 89.6338H65.0004L64.2525 87.3319C64.2007 87.1725 64.0997 87.0336 63.9641 86.9351C63.8285 86.8366 63.6652 86.7836 63.4976 86.7836C63.3301 86.7836 63.1668 86.8366 63.0312 86.9351C62.8956 87.0336 62.7946 87.1725 62.7428 87.3319L61.9949 89.6338H59.5748C59.4072 89.6338 59.2439 89.6869 59.1083 89.7854C58.9728 89.8839 58.8718 90.0229 58.8201 90.1823C58.7683 90.3417 58.7683 90.5134 58.8201 90.6728C58.8719 90.8322 58.9728 90.9711 59.1084 91.0697Z" fill="white" fill-opacity="0.89"/>
<path d="M46.8936 92.5999L48.8514 94.0225L48.1035 96.3244C48.0516 96.4839 48.0515 96.6557 48.1032 96.8152C48.155 96.9747 48.256 97.1137 48.3916 97.2122C48.5273 97.3108 48.6906 97.3639 48.8583 97.3639C49.026 97.3638 49.1894 97.3107 49.325 97.2121L51.2828 95.7894L53.2407 97.2121C53.3763 97.3107 53.5397 97.3638 53.7073 97.3639C53.875 97.3639 54.0384 97.3108 54.1741 97.2122C54.3097 97.1137 54.4107 96.9747 54.4624 96.8152C54.5142 96.6557 54.5141 96.4839 54.4622 96.3244L53.7143 94.0225L55.6721 92.5999C55.8077 92.5013 55.9086 92.3624 55.9604 92.203C56.0122 92.0436 56.0122 91.8719 55.9604 91.7125C55.9086 91.5531 55.8077 91.4141 55.6721 91.3156C55.5366 91.2171 55.3733 91.164 55.2057 91.164H52.7853L52.0377 88.8621C51.9859 88.7026 51.885 88.5636 51.7494 88.465C51.6137 88.3664 51.4504 88.3134 51.2827 88.3134C51.115 88.3134 50.9517 88.3664 50.8161 88.465C50.6804 88.5636 50.5795 88.7026 50.5277 88.8621L49.7801 91.164H47.36C47.1924 91.164 47.0291 91.2171 46.8935 91.3156C46.7579 91.4141 46.657 91.5531 46.6052 91.7125C46.5535 91.8719 46.5535 92.0436 46.6053 92.203C46.6571 92.3624 46.758 92.5013 46.8936 92.5999Z" fill="white" fill-opacity="0.89"/>
<path d="M71.3229 92.5999L73.2807 94.0225L72.5328 96.3244C72.4809 96.4839 72.4808 96.6557 72.5326 96.8152C72.5843 96.9747 72.6853 97.1137 72.8209 97.2122C72.9566 97.3108 73.12 97.3639 73.2876 97.3639C73.4553 97.3638 73.6187 97.3107 73.7543 97.2121L75.7122 95.7894L77.67 97.2121C77.8056 97.3107 77.969 97.3638 78.1367 97.3639C78.3043 97.3639 78.4677 97.3108 78.6034 97.2122C78.739 97.1137 78.84 96.9747 78.8917 96.8152C78.9435 96.6557 78.9434 96.4839 78.8915 96.3244L78.1436 94.0225L80.1014 92.5999C80.237 92.5013 80.338 92.3624 80.3898 92.2029C80.4415 92.0435 80.4415 91.8718 80.3897 91.7123C80.3379 91.5529 80.2369 91.414 80.1013 91.3155C79.9657 91.217 79.8023 91.1639 79.6347 91.164H77.2147L76.467 88.8621C76.4152 88.7026 76.3143 88.5636 76.1787 88.465C76.043 88.3664 75.8797 88.3134 75.712 88.3134C75.5444 88.3134 75.381 88.3664 75.2454 88.465C75.1097 88.5636 75.0088 88.7026 74.9571 88.8621L74.2094 91.164H71.7893C71.6217 91.164 71.4584 91.2171 71.3228 91.3156C71.1873 91.4141 71.0863 91.5531 71.0346 91.7125C70.9828 91.8719 70.9828 92.0436 71.0346 92.203C71.0864 92.3624 71.1873 92.5013 71.3229 92.5999Z" fill="white" fill-opacity="0.89"/>
</svg>
