<svg width="37" height="35" viewBox="0 0 37 35" fill="none" xmlns="http://www.w3.org/2000/svg">
<g clip-path="url(#clip0)">
<path d="M35.7858 3.55061C35.3418 3.04042 34.6769 2.75952 33.9132 2.75952C33.498 2.75952 33.0582 2.8416 32.6062 3.00394L1.83909 14.0399C0.206312 14.6254 -0.013592 15.504 0.000550624 15.9756C0.0146932 16.4473 0.287285 17.3129 1.95279 17.8108C1.96277 17.8137 1.97275 17.8166 1.98274 17.8192L8.36466 19.5353L11.816 28.809C12.2866 30.0733 13.3429 30.8586 14.573 30.8586C15.3486 30.8586 16.1115 30.5532 16.7792 29.9758L20.7267 26.5605L26.4522 30.8925C26.4528 30.893 26.4536 30.8933 26.4542 30.8938L26.5085 30.935C26.5135 30.9386 26.5188 30.9425 26.5238 30.9462C27.1602 31.41 27.8549 31.6549 28.5334 31.6552H28.5337C29.8595 31.6552 30.9152 30.733 31.2227 29.3062L36.2639 5.91633C36.4663 4.97749 36.2966 4.13742 35.7858 3.55061ZM10.4996 19.2093L22.8123 13.2988L15.1456 20.9536C15.02 21.0789 14.931 21.2324 14.8872 21.3994L13.4089 27.0262L10.4996 19.2093ZM15.3364 28.5036C15.2854 28.5476 15.2341 28.587 15.1828 28.6232L16.5543 23.4035L19.0493 25.2913L15.3364 28.5036ZM34.1766 5.51896L29.1355 28.909C29.0869 29.1329 28.9319 29.6538 28.5334 29.6538C28.3365 29.6538 28.0892 29.5529 27.836 29.3697L21.3481 24.4611C21.3473 24.4603 21.3462 24.4595 21.3451 24.459L17.4847 21.538L28.5717 10.4682C28.9266 10.1139 28.9588 9.57109 28.6479 9.1818C28.3368 8.7925 27.773 8.67004 27.3119 8.89152L9.07678 17.6451L2.60806 15.9061L33.3658 4.87353C33.6256 4.78024 33.807 4.7607 33.9132 4.7607C33.9783 4.7607 34.0942 4.768 34.1372 4.81777C34.1938 4.88265 34.2659 5.10387 34.1766 5.51896Z" fill="white" fill-opacity="0.79"/>
</g>
<defs>
<clipPath id="clip0">
<rect width="36.3471" height="34.1535" fill="white" transform="translate(0 0.157959)"/>
</clipPath>
</defs>
</svg>
