<svg width="127" height="127" viewBox="0 0 127 127" fill="none" xmlns="http://www.w3.org/2000/svg">
<path d="M126.755 69.3664C125.615 57.897 120.491 47.0842 112.327 38.9196C105.349 31.9427 96.8095 27.4592 87.8236 25.4656V19.1631C91.4938 18.2501 94.2218 14.9279 94.2218 10.9792C94.2218 6.32874 90.4386 2.54547 85.7881 2.54547H67.9285C63.278 2.54547 59.4947 6.32874 59.4947 10.9792C59.4947 14.9277 62.2228 18.2498 65.8927 19.1631V25.4832C56.9343 27.4852 48.4227 31.9626 41.4654 38.9199C39.9429 40.4424 38.5389 42.0396 37.2537 43.6996C37.1915 43.6949 37.1292 43.6901 37.0657 43.6901H19.3894C18.0196 43.6901 16.9089 44.8007 16.9089 46.1707C16.9089 47.5406 18.0196 48.6512 19.3894 48.6512H33.8785C32.0598 51.696 30.5933 54.8936 29.4771 58.1852H2.48051C1.11077 58.1852 0 59.2958 0 60.6657C0 62.0357 1.11077 63.1463 2.48051 63.1463H28.0754C27.3605 66.2843 26.9502 69.478 26.8443 72.6806H15.8752C14.5055 72.6806 13.3947 73.7911 13.3947 75.1611C13.3947 76.5311 14.5055 77.6416 15.8752 77.6416H26.9234C27.1328 80.8524 27.649 84.0463 28.4723 87.1759H12.4025C11.0328 87.1759 9.92203 88.2864 9.92203 89.6564C9.92203 91.0264 11.0328 92.1369 12.4025 92.1369H30.0553C32.4887 98.5741 36.2916 104.607 41.4654 109.781C49.6377 117.954 60.4616 123.079 71.9429 124.213C73.5815 124.375 75.2214 124.455 76.859 124.455C86.5385 124.455 96.0949 121.654 104.204 116.373C105.352 115.626 105.676 114.089 104.929 112.941C104.181 111.793 102.644 111.468 101.496 112.216C83.7466 123.774 59.9752 121.275 44.9733 106.273C27.3712 88.6712 27.3712 60.0305 44.9733 42.4281C62.5753 24.8261 91.216 24.8261 108.818 42.4281C123.8 57.4103 126.313 81.1614 114.793 98.9025C114.047 100.051 114.373 101.588 115.522 102.334C116.672 103.08 118.208 102.753 118.953 101.604C125.109 92.125 127.879 80.6762 126.755 69.3664ZM64.4557 10.9794C64.4557 9.06449 66.0135 7.50673 67.9285 7.50673H85.7881C87.7031 7.50673 89.2608 9.06449 89.2608 10.9794C89.2608 12.8944 87.7031 14.4522 85.7881 14.4522H85.3431H68.3732H67.9285C66.0135 14.4522 64.4557 12.8941 64.4557 10.9794ZM70.8537 24.6304V19.4132H82.8626V24.6215C78.8749 24.1472 74.8406 24.1502 70.8537 24.6304Z" fill="white" fill-opacity="0.89"/>
<path d="M110.574 105.546C109.919 105.546 109.281 105.811 108.82 106.272C108.356 106.734 108.093 107.374 108.093 108.026C108.093 108.678 108.356 109.318 108.82 109.78C109.281 110.244 109.919 110.507 110.574 110.507C111.226 110.507 111.863 110.244 112.327 109.78C112.789 109.318 113.054 108.678 113.054 108.026C113.054 107.374 112.789 106.734 112.327 106.272C111.863 105.811 111.226 105.546 110.574 105.546Z" fill="white" fill-opacity="0.89"/>
<path d="M76.896 35.8704C55.6782 35.8704 38.4161 53.1323 38.4161 74.3503C38.4161 95.5683 55.6782 112.83 76.896 112.83C98.1137 112.83 115.376 95.5683 115.376 74.3503C115.376 53.1323 98.1137 35.8704 76.896 35.8704ZM76.896 107.869C58.4135 107.869 43.3771 92.8326 43.3771 74.3503C43.3771 55.868 58.4135 40.8314 76.896 40.8314C95.3785 40.8314 110.415 55.868 110.415 74.3503C110.415 92.8326 95.3785 107.869 76.896 107.869Z" fill="white" fill-opacity="0.89"/>
<path d="M92.5867 55.1516L80.3007 67.4374C79.2733 66.9293 78.1176 66.6424 76.896 66.6424C75.6741 66.6424 74.5186 66.9293 73.4912 67.4374L67.9927 61.9388C67.0238 60.9702 65.4536 60.9702 64.4845 61.9388C63.5159 62.9075 63.5159 64.4781 64.4845 65.4468L69.983 70.9453C69.4748 71.9727 69.188 73.1284 69.188 74.35C69.188 78.6001 72.6456 82.058 76.896 82.058C81.1463 82.058 84.6039 78.6001 84.6039 74.35C84.6039 73.1284 84.3169 71.9727 83.8089 70.9453L95.7342 59.02L96.0946 58.6596C97.0632 57.6909 97.0632 56.1203 96.0946 55.1516C95.1259 54.183 93.5558 54.183 92.5867 55.1516ZM76.896 77.0972C75.3814 77.0972 74.1491 75.8649 74.1491 74.3503C74.1491 72.8357 75.3814 71.6034 76.896 71.6034C78.4106 71.6034 79.6429 72.8357 79.6429 74.3503C79.6429 75.8649 78.4106 77.0972 76.896 77.0972Z" fill="white" fill-opacity="0.89"/>
<path d="M103.417 71.9H101.119C99.7494 71.9 98.6386 73.0105 98.6386 74.3805C98.6386 75.7505 99.7494 76.861 101.119 76.861H103.417C104.787 76.861 105.898 75.7505 105.898 74.3805C105.898 73.0105 104.787 71.9 103.417 71.9Z" fill="white" fill-opacity="0.89"/>
<path d="M52.6725 71.8394H50.3746C49.0049 71.8394 47.8941 72.9499 47.8941 74.3199C47.8941 75.6898 49.0049 76.8004 50.3746 76.8004H52.6725C54.0422 76.8004 55.153 75.6898 55.153 74.3199C55.153 72.9499 54.0422 71.8394 52.6725 71.8394Z" fill="white" fill-opacity="0.89"/>
<path d="M76.9262 52.6072C78.2959 52.6072 79.4067 51.4967 79.4067 50.1268V47.8289C79.4067 46.4589 78.2959 45.3484 76.9262 45.3484C75.5565 45.3484 74.4457 46.4589 74.4457 47.8289V50.1268C74.4457 51.4967 75.5565 52.6072 76.9262 52.6072Z" fill="white" fill-opacity="0.89"/>
<path d="M76.8657 96.0931C75.496 96.0931 74.3853 97.2036 74.3853 98.5736V100.872C74.3853 102.241 75.496 103.352 76.8657 103.352C78.2354 103.352 79.3462 102.241 79.3462 100.872V98.5736C79.3462 97.2036 78.2354 96.0931 76.8657 96.0931Z" fill="white" fill-opacity="0.89"/>
<path d="M2.48047 87.1749C1.82811 87.1749 1.18814 87.4403 0.726777 87.9017C0.26541 88.3631 0 89.003 0 89.6554C0 90.3102 0.265162 90.9477 0.726777 91.4091C1.18839 91.8705 1.82811 92.1359 2.48047 92.1359C3.13283 92.1359 3.77279 91.8705 4.23391 91.4091C4.69528 90.9477 4.96094 90.3078 4.96094 89.6554C4.96094 89.003 4.69553 88.3631 4.23391 87.9017C3.77279 87.4403 3.13283 87.1749 2.48047 87.1749Z" fill="white" fill-opacity="0.89"/>
</svg>
