<svg width="38" height="35" viewBox="0 0 38 35" fill="none" xmlns="http://www.w3.org/2000/svg">
<g clip-path="url(#clip0)">
<path d="M22.329 0.157959H15.4058C8.15452 0.157959 2.25507 5.70007 2.25507 12.5124V18.3726C2.25507 23.4457 5.57269 28.0051 10.5612 29.862V33.661C10.5612 33.9186 10.7225 34.1514 10.9731 34.2555C11.0631 34.2932 11.1586 34.3114 11.2534 34.3114C11.4216 34.3114 11.5884 34.2535 11.7179 34.143L15.7318 30.727H22.329C29.5803 30.727 35.4797 25.1849 35.4797 18.3726V12.5124C35.4797 5.70007 29.5803 0.157959 22.329 0.157959ZM34.0954 18.3726C34.0954 24.4675 28.8175 29.4262 22.329 29.4262H15.4646C15.293 29.4262 15.1275 29.4861 15.0002 29.5947L11.9456 32.1943V29.4113C11.9456 29.1355 11.7608 28.8896 11.4839 28.7986C6.79231 27.2396 3.63943 23.0496 3.63943 18.3726V12.5124C3.63943 6.41746 8.91799 1.45877 15.4058 1.45877H22.329C28.8175 1.45877 34.0954 6.41746 34.0954 12.5124V18.3726Z" fill="white" fill-opacity="0.79"/>
<path d="M28.0153 19.9909L23.7611 17.3945C23.296 17.1103 22.7422 17.014 22.2003 17.1194C21.6576 17.2267 21.1911 17.5278 20.8886 17.9668L20.6885 18.2556C18.8473 17.6839 16.8172 16.9535 15.6017 13.6475L16.1049 13.2364C16.9688 12.5308 17.0594 11.2963 16.3084 10.4833L12.9804 6.88588C12.7298 6.61466 12.2924 6.5867 12.0037 6.82149L9.91405 8.52816C8.08115 10.0254 8.93738 12.24 9.2191 12.9678C9.23156 13.0003 9.24678 13.0316 9.26478 13.0621C9.33746 13.1844 11.0728 16.0943 13.8754 18.7766C16.6891 21.4699 21.769 23.9571 21.9248 24.0293C22.5048 24.3831 23.1575 24.5529 23.8033 24.5529C24.9371 24.5529 26.0488 24.0306 26.7119 23.0732L28.2195 20.8917C28.4271 20.5893 28.3357 20.1867 28.0153 19.9909ZM25.5504 22.3642C24.9268 23.267 23.6379 23.5233 22.6204 22.9067C22.5699 22.882 17.5232 20.4124 14.8631 17.866C12.3768 15.4862 10.726 12.8423 10.501 12.4735C9.95281 11.029 10.0497 10.1412 10.8222 9.51027L12.39 8.23027L15.2639 11.3366C15.5193 11.6124 15.4896 12.0156 15.1975 12.2543L14.3482 12.9477C14.1412 13.1168 14.0595 13.3841 14.1405 13.6299C15.5885 18.0514 18.4043 18.9197 20.4601 19.5538L20.7598 19.6468C21.0595 19.7418 21.3876 19.6332 21.5593 19.3847L22.05 18.6745C22.1511 18.5275 22.3062 18.428 22.4861 18.3922C22.6668 18.3558 22.8509 18.3896 23.0073 18.4852L26.6814 20.7272L25.5504 22.3642Z" fill="white" fill-opacity="0.79"/>
<path d="M20.4477 10.7252C20.0794 10.6257 19.6966 10.8266 19.5921 11.1727C19.4876 11.518 19.7008 11.8777 20.0683 11.9759C21.0997 12.2517 21.9213 13.025 22.212 13.9948C22.2979 14.2809 22.5754 14.4689 22.8779 14.4689C22.9402 14.4689 23.0032 14.4611 23.0662 14.4449C23.4337 14.3473 23.6483 13.9883 23.5445 13.6423C23.1243 12.2413 21.9372 11.1232 20.4477 10.7252Z" fill="white" fill-opacity="0.79"/>
<path d="M25.7152 14.6092C25.7775 14.6092 25.8404 14.6014 25.9034 14.5851C26.2717 14.4876 26.4856 14.1279 26.3817 13.7825C25.565 11.0619 23.2607 8.89213 20.3674 8.11815C19.9998 8.01863 19.617 8.22091 19.5125 8.56627C19.408 8.91164 19.6212 9.27131 19.9887 9.36953C22.4231 10.0199 24.3619 11.8469 25.0493 14.1357C25.1358 14.4219 25.4127 14.6092 25.7152 14.6092Z" fill="white" fill-opacity="0.79"/>
<path d="M20.0691 5.08943C19.7008 4.98992 19.318 5.1909 19.2135 5.53756C19.109 5.88293 19.3222 6.2426 19.6897 6.34081C23.8144 7.44325 27.1002 10.5379 28.2645 14.4163C28.3503 14.7024 28.6279 14.8904 28.9303 14.8904C28.9926 14.8904 29.0556 14.8826 29.1186 14.8663C29.4862 14.7688 29.7007 14.4091 29.5969 14.0637C28.3032 9.75349 24.6527 6.31545 20.0691 5.08943Z" fill="white" fill-opacity="0.79"/>
</g>
<defs>
<clipPath id="clip0">
<rect width="36.3471" height="34.1535" fill="white" transform="translate(0.694214 0.157959)"/>
</clipPath>
</defs>
</svg>
