<svg width="37" height="35" viewBox="0 0 37 35" fill="none" xmlns="http://www.w3.org/2000/svg">
<g clip-path="url(#clip0)">
<path d="M31.3486 5.11296C27.948 1.91785 23.4265 0.157959 18.6174 0.157959C14.835 0.157959 11.2147 1.24818 8.14828 3.31112C7.82938 3.52557 7.75589 3.94222 7.98412 4.24188C8.21262 4.54153 8.65603 4.61032 8.97465 4.39587C11.7987 2.49632 15.1331 1.49208 18.6174 1.49208C27.7622 1.49208 35.202 8.48292 35.202 17.076C35.202 25.6688 27.7622 32.6597 18.6174 32.6597C15.8316 32.6597 13.0766 31.9981 10.6501 30.7463C10.489 30.6634 10.3002 30.6423 10.1233 30.6871L2.22058 32.6941L4.37525 25.4684C4.42739 25.2939 4.4016 25.107 4.30398 24.951C2.8179 22.5714 2.03257 19.8485 2.03257 17.076C2.03257 13.8017 3.10131 10.6686 5.12287 8.01519C5.35109 7.7158 5.27761 7.29915 4.95898 7.0847C4.64008 6.87025 4.19667 6.93904 3.96844 7.23869C1.77301 10.1198 0.61276 13.5216 0.61276 17.076C0.61276 19.99 1.41223 22.8539 2.92771 25.3783L0.516258 33.4643C0.447208 33.6954 0.51598 33.9435 0.695397 34.1139C0.830723 34.2418 1.01291 34.3114 1.19982 34.3114C1.26166 34.3114 1.32377 34.3039 1.38506 34.2882L10.2209 32.0445C12.7934 33.3205 15.6902 33.9938 18.6171 33.9938C23.4265 33.9938 27.948 32.2341 31.3483 29.0385C34.7489 25.8434 36.6218 21.5948 36.6218 17.0757C36.6218 12.5569 34.7492 8.30859 31.3486 5.11296Z" fill="white" fill-opacity="0.79"/>
<path d="M30.2532 25.162C30.5793 25.3665 31.0202 25.2839 31.2379 24.9775C32.9017 22.635 33.7814 19.9026 33.7814 17.0757C33.7814 13.2693 32.204 9.69063 29.34 6.99946C26.476 4.30829 22.6678 2.82617 18.6166 2.82617C14.5654 2.82617 10.7569 4.30829 7.89288 6.99946C5.02886 9.69063 3.45154 13.2693 3.45154 17.076C3.45154 19.6113 4.16948 22.1008 5.52773 24.2755L5.98584 25.0093L4.59792 29.6636C4.52887 29.8945 4.59737 30.1425 4.77706 30.3129C4.95676 30.4833 5.2202 30.5501 5.46672 30.4875L10.5803 29.1888L11.3323 29.5768C13.5502 30.721 16.069 31.3255 18.6163 31.3255C21.6251 31.3255 24.5329 30.499 27.0256 28.9353C27.3517 28.731 27.4396 28.3167 27.222 28.0103C27.0043 27.7038 26.5636 27.6212 26.2375 27.8258C23.9789 29.2425 21.3436 29.9914 18.6163 29.9914C16.3072 29.9914 14.0247 29.4437 12.0156 28.4074L11.0128 27.8899C10.852 27.807 10.6632 27.7859 10.486 27.8307L6.30197 28.8933L7.43449 25.0961C7.48634 24.9215 7.46083 24.7346 7.36322 24.5786L6.75204 23.6001C5.52163 21.63 4.87135 19.3739 4.87135 17.0757C4.87135 9.95407 11.0375 4.16029 18.6166 4.16029C26.1956 4.16029 32.3616 9.95407 32.3616 17.076C32.3616 19.6382 31.5646 22.1144 30.0569 24.237C29.8392 24.5434 29.9271 24.9574 30.2532 25.162Z" fill="white" fill-opacity="0.79"/>
<path d="M16.0221 15.027L16.069 14.9756C16.7048 14.3049 16.5443 13.5172 16.2975 12.9747C15.9328 12.1735 14.9789 10.1254 14.8885 9.93151C14.7476 9.59694 14.2776 9.06694 13.3322 9.04844C12.5951 9.03437 12.3528 9.05391 12.2962 9.06042C12.2904 9.06094 12.2846 9.06173 12.279 9.06251C12.1703 9.07736 9.61355 9.46613 9.17208 13.067C8.96909 14.7224 9.78493 16.6943 11.5968 18.9287C13.6029 21.4023 15.447 22.8753 18.174 24.1818C19.532 24.8325 21.5155 25.5941 23.3621 25.5941C23.422 25.5941 23.4819 25.5933 23.5413 25.5915C25.6152 25.5347 26.7228 24.7249 27.2866 24.0555C27.885 23.3449 28.01 22.6447 28.0281 22.5233C28.04 22.4462 28.0688 22.2028 28.0871 21.5688C28.1127 20.6806 27.5713 20.2141 27.2225 20.0659C27.0253 19.9739 24.9927 19.027 24.1594 18.6473C23.5967 18.3907 22.7695 18.2442 22.0249 19.0033C22.0211 19.0072 22.0175 19.0111 22.0139 19.0145C21.9132 19.0971 21.8136 19.2203 21.5111 19.6007C21.3247 19.835 20.9529 20.3025 20.7948 20.4585C20.4609 20.4807 19.3445 20.0187 17.7619 18.8672C16.7644 18.1413 15.6993 17.0112 15.11 16.0539C15.1042 16.0403 15.1006 16.0156 15.1023 16.0031C15.3466 15.767 15.7442 15.3331 16.0221 15.027ZM16.8926 19.922C17.3656 20.2662 18.2932 20.9075 19.19 21.3351C19.614 21.537 20.9044 22.1523 21.6999 21.4907C21.9196 21.308 22.2315 20.9231 22.6481 20.3994C22.7681 20.2485 22.9157 20.0633 22.9728 19.9992C23.0099 19.9674 23.0407 19.9361 23.0687 19.9074C23.1966 19.7772 23.2548 19.7177 23.5396 19.8475C24.3948 20.2373 26.5284 21.2317 26.6049 21.2671C26.6313 21.2918 26.6723 21.3724 26.6676 21.5326C26.6518 22.0855 26.6288 22.2854 26.6241 22.3229C26.621 22.3367 26.6224 22.3284 26.6207 22.3435C26.6124 22.3889 26.5231 22.836 26.1319 23.275C25.58 23.8947 24.6946 24.2253 23.4999 24.2579C21.9027 24.3025 20.0733 23.5945 18.8187 22.9934C16.2664 21.7703 14.615 20.4494 12.7258 18.1199C11.1662 16.1969 10.4249 14.5022 10.5822 13.2194C10.8783 10.8042 12.2871 10.4248 12.4759 10.3846C12.5425 10.3807 12.7676 10.3719 13.3028 10.3823C13.4734 10.3857 13.5568 10.4282 13.5821 10.454C13.6173 10.5295 14.6181 12.6777 14.9916 13.499C15.1783 13.9094 15.0637 14.0303 15.0085 14.0884C14.9986 14.0988 14.99 14.1082 14.9825 14.116L14.9417 14.1611C14.5316 14.6127 14.2429 14.9199 14.0837 15.0733C13.5596 15.5794 13.6093 16.2798 13.8777 16.7165C14.5604 17.8281 15.744 19.0861 16.8926 19.922Z" fill="white" fill-opacity="0.79"/>
<path d="M6.3874 6.25179C6.55794 6.25179 6.72904 6.19446 6.86492 6.07825C7.15498 5.83045 7.17661 5.40858 6.91289 5.13603C6.6489 4.86347 6.20022 4.84341 5.90988 5.09121L5.9096 5.09147C5.61954 5.33927 5.59846 5.76087 5.86218 6.03369C6.00222 6.17831 6.19439 6.25179 6.3874 6.25179Z" fill="white" fill-opacity="0.79"/>
<path d="M28.3126 26.2315L28.3123 26.232C28.0486 26.5046 28.0702 26.9262 28.3603 27.174C28.4962 27.2902 28.667 27.3475 28.8375 27.3475C29.0305 27.3475 29.223 27.2738 29.363 27.1289C29.627 26.8563 29.6054 26.4345 29.3153 26.1867C29.0253 25.9389 28.5763 25.9589 28.3126 26.2315Z" fill="white" fill-opacity="0.79"/>
</g>
<defs>
<clipPath id="clip0">
<rect width="36.3471" height="34.1535" fill="white" transform="translate(0.347107 0.157959)"/>
</clipPath>
</defs>
</svg>
